<svg width="32" height="32" viewBox="0 0 32 32" fill="none" xmlns="http://www.w3.org/2000/svg"><path d="M18.5 6.00001C14.9 -0.39999 9.33331 2.00001 7.49998 4.50001C3.49996 4.90001 2.16663 10 2.99997 11.5C-1.00003 14.3 1.66664 17.6667 3.49997 19C3.89997 23.4 9.33331 24.5 11 23.5C17.8 25.9 20.1666 22.1667 20 19.5C23 18 22.5 15 21.5 13C23.1 8.6 21.5 6.5 18.5 6.00001Z" fill="#D2D2D2" stroke="black"/><circle cx="24" cy="24" r="1.5" fill="#D2D2D2" stroke="black"/><circle cx="29.5" cy="28.5" r="1" fill="#D2D2D2" stroke="black"/><path d="M12.1816 15.5977H11.0918C11.0957 15.2227 11.1289 14.916 11.1914 14.6777C11.2578 14.4355 11.3652 14.2148 11.5137 14.0156C11.6621 13.8164 11.8594 13.5898 12.1055 13.3359C12.2852 13.1523 12.4492 12.9805 12.5977 12.8203C12.75 12.6562 12.873 12.4805 12.9668 12.293C13.0605 12.1016 13.1074 11.873 13.1074 11.6074C13.1074 11.3379 13.0586 11.1055 12.9609 10.9102C12.8672 10.7148 12.7266 10.5645 12.5391 10.459C12.3555 10.3535 12.127 10.3008 11.8535 10.3008C11.627 10.3008 11.4121 10.3418 11.209 10.4238C11.0059 10.5059 10.8418 10.6328 10.7168 10.8047C10.5918 10.9727 10.5273 11.1934 10.5234 11.4668H9.43945C9.44727 11.0254 9.55664 10.6465 9.76758 10.3301C9.98242 10.0137 10.2715 9.77148 10.6348 9.60352C10.998 9.43555 11.4043 9.35156 11.8535 9.35156C12.3496 9.35156 12.7715 9.44141 13.1191 9.62109C13.4707 9.80078 13.7383 10.0586 13.9219 10.3945C14.1055 10.7266 14.1973 11.1211 14.1973 11.5781C14.1973 11.9297 14.125 12.2539 13.9805 12.5508C13.8398 12.8438 13.6582 13.1191 13.4355 13.377C13.2129 13.6348 12.9766 13.8809 12.7266 14.1152C12.5117 14.3145 12.3672 14.5391 12.293 14.7891C12.2188 15.0391 12.1816 15.3086 12.1816 15.5977ZM11.0449 17.4551C11.0449 17.2793 11.0996 17.1309 11.209 17.0098C11.3184 16.8887 11.4766 16.8281 11.6836 16.8281C11.8945 16.8281 12.0547 16.8887 12.1641 17.0098C12.2734 17.1309 12.3281 17.2793 12.3281 17.4551C12.3281 17.623 12.2734 17.7676 12.1641 17.8887C12.0547 18.0098 11.8945 18.0703 11.6836 18.0703C11.4766 18.0703 11.3184 18.0098 11.209 17.8887C11.0996 17.7676 11.0449 17.623 11.0449 17.4551Z" fill="black"/></svg>